<?xml version="1.0" encoding="UTF-8" standalone="no"?>
<svg width="50px" height="48px" viewBox="0 0 50 48" version="1.1" xmlns="http://www.w3.org/2000/svg" xmlns:xlink="http://www.w3.org/1999/xlink">
    <!-- Generator: Sketch 3.8.3 (29802) - http://www.bohemiancoding.com/sketch -->
    <title>Page 1</title>
    <desc>Created with Sketch.</desc>
    <defs></defs>
    <g id="Symbols" stroke="none" stroke-width="1" fill="none" fill-rule="evenodd">
        <g id="bottom-tab-events" transform="translate(-444.000000, -29.000000)" fill="#96A6B5">
            <g id="Page-1" transform="translate(444.000000, 29.000000)">
                <path d="M35.6674498,28.4236154 C35.093076,28.9839624 34.809077,29.8572729 34.9444274,30.6493367 L37.0153064,42.7241208 L26.1701523,37.0224633 C25.822759,36.8397494 25.4181652,36.7433828 25.000091,36.7433828 C24.5820169,36.7433828 24.1776052,36.8397494 23.8300298,37.0224633 L12.984147,42.7241208 L15.0559369,30.6484259 C15.1914694,29.8578194 14.9078348,28.984691 14.3329145,28.4232511 L5.55918589,19.8708559 L17.6846125,18.1087506 C18.4801376,17.9930743 19.2235627,17.4525836 19.5782427,16.7328402 L25.000091,5.7463242 L30.4217573,16.7315651 C30.7768015,17.4525836 31.5204089,17.9930743 32.3157517,18.1087506 L44.4411784,19.8706737 L35.6674498,28.4236154 Z M49.9054718,18.0950881 C49.6715688,17.3753447 49.0398123,16.8574427 48.2570389,16.7435881 L33.4269729,14.5885477 L26.7951686,1.15115148 C26.445225,0.441245113 25.7573609,0.0004 25.000091,0.0004 C24.2430033,0.0004 23.5551392,0.441245113 23.2053778,1.15042281 L16.5735735,14.5885477 L1.74332531,16.7435881 C0.960734154,16.8574427 0.329341938,17.3749803 0.0952568262,18.0943594 C-0.139010453,18.8139206 0.0670208789,19.6041628 0.634108002,20.1577696 L11.364861,30.618004 L8.83073026,45.3879548 C8.72634834,45.996576 8.88465181,46.6041043 9.26465301,47.05424 C9.63427067,47.4927169 10.1780404,47.7442901 10.7564219,47.7441079 C11.0937959,47.7441079 11.4229724,47.6610396 11.734843,47.4970889 L25.000091,40.5235386 L38.2647926,47.4970889 C38.5766632,47.6610396 38.9056575,47.7441079 39.2432137,47.7441079 C39.8214131,47.7441079 40.3651827,47.4927169 40.7349826,47.05424 C41.1148016,46.6039222 41.2729229,45.996576 41.1687232,45.3870439 L38.6356854,30.6181861 L49.3664384,20.1574052 C49.932979,19.6050737 50.1393747,18.8148315 49.9054718,18.0950881 L49.9054718,18.0950881 Z" id="Fill-1"></path>
            </g>
        </g>
    </g>
</svg>