<svg xmlns="http://www.w3.org/2000/svg" width="50" height="48" viewBox="0 0 50 48">
  <path fill="#49B7E7" fill-rule="evenodd" d="M49.9054718,18.0950881 C49.6715688,17.3753447 49.0398123,16.8574427 48.2570389,16.7435881 L33.4269729,14.5885477 L26.7951686,1.15115148 C26.445225,0.441245113 25.7573609,0.0004 25.000091,0.0004 C24.2430033,0.0004 23.5551392,0.441245113 23.2053778,1.15042281 L16.5735735,14.5885477 L1.74332531,16.7435881 C0.960734154,16.8574427 0.329341938,17.3749803 0.0952568262,18.0943594 C-0.139010453,18.8139206 0.0670208789,19.6041628 0.634108002,20.1577696 L11.364861,30.618004 L8.83073026,45.3879548 C8.72634834,45.996576 8.88465181,46.6041043 9.26465301,47.05424 C9.63427067,47.4927169 10.1780404,47.7442901 10.7564219,47.7441079 C11.0937959,47.7441079 11.4229724,47.6610396 11.734843,47.4970889 L25.000091,40.5235386 L38.2647926,47.4970889 C38.5766632,47.6610396 38.9056575,47.7441079 39.2432137,47.7441079 C39.8214131,47.7441079 40.3651827,47.4927169 40.7349826,47.05424 C41.1148016,46.6039222 41.2729229,45.996576 41.1687232,45.3870439 L38.6356854,30.6181861 L49.3664384,20.1574052 C49.932979,19.6050737 50.1393747,18.8148315 49.9054718,18.0950881 L49.9054718,18.0950881 L49.9054718,18.0950881 Z"/>
</svg>
