<svg xmlns="http://www.w3.org/2000/svg" width="35" height="30" viewBox="0 0 35 30">
  <g fill="#96A6B5" fill-rule="evenodd" transform="rotate(-90 15 14.5)">
    <path d="M2.97975597 19.8904338C2.96710576 21.5195028 4.24656667 22.8410476 5.85767778 22.8629717 7.52428272 22.8858338 8.85398642 21.6018062 8.86615926 19.9579648 8.87809342 18.3393303 7.58777243 17.0684338 5.92391235 17.0602269 4.29680947 17.0522545 2.99216749 18.3062683 2.97975597 19.8904338M8.26992881 8.24262C8.27028683 10.1956269 8.27840206 12.1485166 8.26276831 14.1011717 8.26002346 14.4526614 8.35621276 14.6429441 8.68845967 14.8261924 10.7030646 15.936351 11.8074514 17.6296683 11.8222498 19.9162269 11.8371675 22.2295166 10.728723 23.9377234 8.70075185 25.0717993 8.38151317 25.2504752 8.25835267 25.4360683 8.26193292 25.7969372 8.27983416 27.6715097 8.27303169 29.5464338 8.2693321 31.4212407 8.26658724 32.8082062 7.3243856 33.8340683 6.01819218 33.8830752 4.70400288 33.9323166 3.6356572 33.0044683 3.58135679 31.6088269 3.50772305 29.717489 3.52980123 27.8218131 3.5466284 25.9284821 3.55080535 25.4610407 3.40127037 25.2137786 2.97987531 24.9789441-.977848971 22.7728131-.998495062 17.1649234 2.94956255 14.9430821 3.42597407 14.674951 3.54806049 14.3908752 3.54555432 13.893889 3.52693704 10.2420545 3.53552963 6.59010276 3.53552963 2.93826828 3.53552963 2.18358552 3.61799465 1.45950276 4.18677654.871771724 4.86034033.175709655 5.84586296-.0649868966 6.75297819.269854483 7.65818395.604109655 8.2601428 1.41917172 8.26599053 2.38406828 8.27804403 4.33684069 8.26957078 6.28984759 8.26992881 8.24262M25.9321461 10.8572434C25.9389486 9.22606414 24.6604424 7.94367793 23.011858 7.92855379 21.3730597 7.91331241 20.0554095 9.19487793 20.0457428 10.8137469 20.0359568 12.4387124 21.3258004 13.7293055 22.9680597 13.7378641 24.6196276 13.74654 25.925463 12.4774021 25.9321461 10.8572434M20.6419733 24.1265055C20.6417346 21.6456779 20.634216 19.1647331 20.6500885 16.6840228 20.6524753 16.3259676 20.5408909 16.1376779 20.2174753 15.9584159 18.182463 14.8307883 17.0752119 13.1162503 17.0863107 10.8068297 17.0974095 8.49717448 18.2225617 6.79541586 20.2683148 5.68584345 20.5549733 5.53026414 20.6571296 5.36765034 20.6492531 5.05250552 20.6276523 4.17401586 20.6318292 3.29447103 20.6444794 2.41562966 20.6627387 1.16278828 21.6346564.173974483 22.8821337.119574483 24.1534794.0641193103 25.2431872.987746897 25.327323 2.26122276 25.3890226 3.19505034 25.3404506 4.13567793 25.3939156 5.07044345 25.4063272 5.28757448 25.5806852 5.58255379 25.7697222 5.69006414 27.7768086 6.83105724 28.8844177 8.52074 28.8995741 10.7974503 28.9148498 13.1003055 27.8176235 14.8314917 25.7731831 15.9499745 25.3918868 16.1586641 25.3736276 16.4187055 25.3739856 16.7597607 25.3776852 21.5066297 25.3764918 26.2533814 25.3764918 31.0002503 25.3764918 31.7097952 25.3381831 32.408671 24.8504342 32.9954641 24.1953683 33.783209 23.1819198 34.0783055 22.2234877 33.7561262 21.2680391 33.4348848 20.6482984 32.596609 20.6447181 31.5689883 20.6363642 29.0881607 20.6419733 26.6073331 20.6419733 24.1265055"/>
  </g>
</svg>
