<svg xmlns="http://www.w3.org/2000/svg" width="60" height="60" viewBox="0 0 60 60" xmlns:xlink="http://www.w3.org/1999/xlink">
  <defs>
    <polygon id="a" points="0 59.837 59.837 59.837 59.837 0 0 0"/>
  </defs>
  <g fill="none" fill-rule="evenodd">
    <mask id="b" fill="white">
      <use xlink:href="#a"/>
    </mask>
    <path fill="#903283" d="M11.6395512,46.1365596 C12.365867,45.7945097 13.0660886,45.4386648 13.7867535,45.1301884 C15.8189418,44.2612687 17.8790526,43.4543435 19.8879723,42.5357285 C20.8918504,42.0765042 21.8206039,41.4459224 22.7614903,40.8580554 C24.0002161,40.0847036 24.1803823,38.8848698 24.0121828,37.5527368 C20.1841496,37.449856 16.4508532,37.0424875 13.4460332,34.1618227 C15.4853684,33.5568366 16.2821551,31.971241 16.8828199,30.2486925 C17.5667535,28.2871413 17.7794958,26.239662 17.8295235,24.1758947 C17.8727368,22.4041496 17.8376676,20.6297452 17.9094681,18.8594958 C17.9967258,16.7034848 18.3668643,14.592349 19.1550083,12.5693019 C20.3460332,9.51212742 22.4731247,7.45334626 25.6059224,6.41589474 C27.4606039,5.80160111 29.3212687,5.4981108 31.2489141,5.97329086 C32.4770028,6.27611634 33.5698006,6.83921884 34.4914072,7.72110249 C34.5809917,7.80653186 34.7357285,7.87932964 34.8545651,7.8713518 C38.3051468,7.64331856 40.518831,9.40575623 41.7547313,12.2762825 C42.7070859,14.4876399 43.0572798,16.8289695 43.0619335,19.2088587 C43.0650914,21.1727368 42.9088587,23.1367812 42.819108,25.1006593 C42.7496343,26.6209363 42.8284155,28.1280831 43.2371136,29.6013241 C43.8023767,31.6386648 44.8351745,33.3224875 46.8898006,34.2670305 C45.7464765,35.3842604 44.4002161,36.05041 42.9460886,36.5217673 C40.972072,37.1614903 38.938554,37.4249252 36.8707978,37.4591634 C36.7561163,37.4608255 36.6416011,37.4593296 36.5295789,37.4593296 C36.3312964,38.8054238 36.4381662,39.9841496 37.6687479,40.8509086 C38.7557285,41.6161163 39.8947313,42.2666427 41.1091911,42.789856 C43.3999945,43.7771136 45.697446,44.7494127 47.9917396,45.7288587 C48.0613795,45.7586094 48.1268643,45.7986648 48.197169,45.8353961 C39.7908532,55.9313518 22.2384432,57.6231524 11.6395512,46.1365596 M29.9264211,4.98614959e-05 C13.4480277,0.000382271468 0.0118504155,13.3830416 4.98614959e-05,29.8072521 C-0.0119168975,46.3697452 13.3351745,59.8265319 29.7846482,59.8368366 C46.3790526,59.8469751 59.8330139,46.5027091 59.8366704,30.0296343 C59.8406593,13.4106316 46.483097,-0.000448753463 29.9264211,4.98614959e-05" mask="url(#b)"/>
  </g>
</svg>
