<svg xmlns="http://www.w3.org/2000/svg" width="60" height="61" viewBox="0 0 60 61">
  <g fill="#3FB3B0" fill-rule="evenodd">
    <path d="M39.9916452 46.1929343C39.9451935 35.3486202 39.8985484 24.5580721 39.8520968 13.744649 33.2013871 13.7733894 26.6071935 13.8017388 19.9684839 13.8304792 20.0147419 24.6814407 20.061 35.4715978 20.1070645 46.2803285 26.7622258 46.2511971 33.3670645 46.2220657 39.9916452 46.1929343M34.0379613 48.8067647C33.7567355 48.6687327 33.4178323 48.5922872 33.1044774 48.5905276 31.0726065 48.5784058 29.0405419 48.5897455 27.0088645 48.6071462 26.7572516 48.6094923 26.4951871 48.6626718 26.2575097 48.7471333 25.9559613 48.8542744 25.6337032 49.0535019 25.7078323 49.4120724 25.7658968 49.6940019 26.0122839 49.9362423 26.1748645 50.1960788 26.2079613 50.1843481 26.2410581 50.1724218 26.2739613 50.1604955 26.5015742 50.1870853 26.7291871 50.23655 26.9568 50.2363545 29.0291226 50.2345949 31.1016387 50.2343994 33.1733806 50.2040949 33.4832516 50.1995981 33.8254452 50.1006686 34.0917677 49.9415212 34.5886065 49.6441462 34.5589935 49.0628865 34.0379613 48.8067647M29.319271 12.0841587C29.863529 12.3089984 30.5190774 12.0301971 30.7381742 11.4802196 30.9594 10.9247676 30.6797226 10.2860272 30.1186258 10.0645112 29.5786258 9.85159776 28.9544323 10.114367 28.7303032 10.648899 28.5026903 11.1914471 28.7771419 11.860101 29.319271 12.0841587"/>
    <path d="M17.6768903,12.8674808 C17.6941161,12.1519038 17.8865032,11.4406282 17.9993419,10.7273974 C18.4448903,9.70388782 19.1648903,9.01568269 20.2011484,8.76073397 C21.0233419,8.55857372 21.8815355,8.41663141 22.7252129,8.40744231 C27.5064387,8.35641346 32.2884387,8.34253205 37.0696645,8.34487821 C37.8092129,8.34526923 38.5592129,8.43950641 39.2850194,8.58653205 C40.5918581,8.85203846 41.4467613,9.66419872 41.8342452,10.9645545 C42.1870839,12.1477981 42.209729,13.3676026 42.2155355,14.5864295 C42.2592774,24.0418205 42.2987613,33.4974071 42.3347613,42.9527981 C42.3421161,44.8541603 42.3450194,46.7559135 42.3142452,48.6570801 C42.3061161,49.1564199 42.1971484,49.662016 42.0783097,50.1509936 C41.8305677,51.1700064 41.1874065,51.8740481 40.1761161,52.0805096 C39.2261806,52.2746538 38.2456645,52.3962628 37.2775355,52.4052564 C32.2654065,52.4513974 27.2528903,52.460391 22.2405677,52.4558942 C21.5416645,52.4551122 20.8361806,52.346016 20.1459871,52.2193237 C18.9845032,52.0064103 18.2379871,51.2687404 18.0192774,50.1165833 C17.8445032,49.196109 17.7670839,48.2445481 17.761471,47.3062821 C17.7051484,37.9742596 17.6693419,28.6424327 17.6362452,19.3106058 C17.6286968,17.1628974 17.6257935,15.0142115 17.6768903,12.8674808 M29.4816,60.6054551 C46.6474065,60.8654872 60.0411484,46.8753718 59.9708903,30.4747788 C60.0910839,13.9502308 46.8620516,0.486044872 30.6409548,0.197467949 C13.7246323,-0.104012821 0.357019355,13.3767917 0.00727741936,29.6858846 C-0.356206452,46.6331314 13.0938581,60.3565673 29.4816,60.6054551" transform="translate(0 .003)"/>
  </g>
</svg>
