<svg xmlns="http://www.w3.org/2000/svg" width="60" height="60" viewBox="0 0 60 60">
  <g fill="none" fill-rule="evenodd">
    <path fill="#EBA127" d="M12.50065,17.3466164 C12.50065,18.395358 12.5093167,19.4094442 12.4944833,20.4232003 C12.4908167,20.6715648 12.56965,20.8190982 12.7749833,20.9598656 C17.49015,24.1853032 22.1983167,27.4206424 26.9128167,30.6467401 C28.6584833,31.8412 31.3028167,31.8570425 33.04815,30.664563 C37.78765,27.4265834 42.51565,24.1717711 47.2539833,20.9318112 C47.4554833,20.7940143 47.5088167,20.647636 47.5063167,20.4243555 C47.4968167,19.5170413 47.5033167,18.6095621 47.5013167,17.7020829 C47.5009833,17.5847492 47.48565,17.4675806 47.4769833,17.3466164 L12.50065,17.3466164 Z M47.4878167,25.5971026 C47.2999833,25.7202122 47.16315,25.8063559 47.0298167,25.8976154 C43.1974833,28.525658 39.36465,31.1535357 35.53315,33.7830636 C32.1959833,36.0732976 27.81015,36.0827041 24.4789833,33.7989061 C20.6118167,31.1479248 16.7474833,28.4928178 12.8813167,25.8403513 C12.7734833,25.7664195 12.6584833,25.7027194 12.5249833,25.6210314 L12.5249833,42.0690305 L47.4878167,42.0690305 L47.4878167,25.5971026 Z M-1.66666664e-05,29.6971792 C0.00015,13.242084 13.4518167,-0.0298202393 30.16765,0.0208428125 C46.74665,0.0711758119 60.3153167,13.5607497 59.9848167,30.3239488 C59.66965,46.3293476 46.50915,59.4096564 29.9738167,59.4094914 C13.4093167,59.4091613 -1.66666664e-05,46.0923699 -1.66666664e-05,29.6971792 L-1.66666664e-05,29.6971792 Z"/>
    <path fill="#FFFFFF" d="M47.4878,25.5971191 L47.4878,42.0688819 L12.5251333,42.0688819 L12.5251333,25.6210479 C12.6584667,25.7027359 12.7734667,25.766271 12.8813,25.8403678 C16.7474667,28.4926693 20.6118,31.1479413 24.4789667,33.7989226 C27.8103,36.0827206 32.1959667,36.0731491 35.5331333,33.7830801 C39.3646333,31.1535522 43.1974667,28.5256745 47.0298,25.8976319 C47.1631333,25.8063724 47.2999667,25.7202287 47.4878,25.5971191"/>
    <path fill="#FFFFFF" d="M12.50065,17.3466164 L47.4769833,17.3466164 C47.48565,17.4675806 47.5009833,17.5847492 47.5013167,17.7020829 C47.5033167,18.6095621 47.4968167,19.5170413 47.5063167,20.4243555 C47.5088167,20.647636 47.4554833,20.7940143 47.2539833,20.9318112 C42.51565,24.1717711 37.78765,27.4265834 33.04815,30.664563 C31.3028167,31.8570425 28.6584833,31.8412 26.9128167,30.6467401 C22.1983167,27.4206424 17.49015,24.1853032 12.7749833,20.9598656 C12.56965,20.8190982 12.4908167,20.6715648 12.4944833,20.4232003 C12.5093167,19.4094442 12.50065,18.395358 12.50065,17.3466164"/>
  </g>
</svg>
