<svg xmlns="http://www.w3.org/2000/svg" width="60" height="61" viewBox="0 0 60 61">
  <g fill="#659540" fill-rule="evenodd">
    <path d="M44.4770129 15.4558848C42.1530774 13.1500848 39.5645613 11.5266977 36.5887548 10.5259042 38.2273355 12.4590139 39.3561097 14.6831526 40.2841742 17.0963913 41.6866258 16.5475881 43.0418516 16.0172816 44.4770129 15.4558848M40.2705484 30.993549L31.0456452 30.993549 31.0456452 40.1433523C33.6295161 40.2195039 36.1729355 40.3966006 38.6863548 40.9597684 39.6730645 37.6909555 40.2153871 34.3926265 40.2705484 30.993549M37.8624387 17.5694758C37.6239871 17.0167371 37.4132129 16.4838726 37.1677935 15.9681274 36.2732129 14.0877532 35.1920516 12.3405952 33.6024387 10.9734081 32.8580516 10.3331048 32.0383742 9.82641129 31.0565032 9.57080161L31.0565032 18.4016339C32.2309548 18.5317016 36.4659871 18.01635 37.8624387 17.5694758M31.0490129 42.3949213L31.0490129 51.3021019C31.5576581 51.0663665 32.0268194 50.8861213 32.4603677 50.641531 33.6493355 49.9709245 34.5715935 48.9949245 35.3752065 47.8984987 36.4254 46.465589 37.2150774 44.8890342 37.8477871 43.2233406 36.4416581 42.7861084 32.311529 42.2829568 31.0490129 42.3949213M41.0011742 19.1836342C41.8419484 22.2021503 42.3041419 25.2808794 42.4154323 28.4141148 42.4258839 28.7134084 42.5484 28.7692923 42.810271 28.7685052 45.2673677 28.7606342 47.7246581 28.7641761 50.1817548 28.7631923 50.2934323 28.7631923 50.4051097 28.7539439 50.5734968 28.7466632 50.2357548 24.2771342 48.690271 20.3526697 46.0127226 16.9691374 44.2942065 17.6922826 42.6490452 18.3843374 40.9837548 19.0850503 40.9837548 19.0854439 40.9880129 19.1360148 41.0011742 19.1836342M36.5090129 50.3227568C39.1207548 49.5453019 43.5837871 46.7154923 44.3951419 45.3152471 43.0265613 44.7813987 41.6697871 44.2520761 40.2808839 43.71016 39.3537871 46.1385503 38.2224968 48.3512761 36.5090129 50.3227568M15.5670387 45.4099348C17.8452968 47.6527671 20.4194903 49.2796961 23.384071 50.26888 21.7534258 48.3418703 20.6294903 46.1275703 19.7238774 43.7700187 18.2772968 44.2076445 16.9085226 44.7125671 15.5670387 45.4099348M40.9746 41.3710658C42.6553742 42.0796497 44.3092452 42.7770174 46.0095677 43.4940626 48.8853097 39.8911271 50.4091161 35.7140045 50.5939548 30.9882755L42.4519548 30.9882755C42.3758903 34.5516594 41.9371161 38.0292497 40.9746 41.3710658M31.0614 20.7197716L31.0614 28.7306458 40.2522387 28.7306458C40.1461742 25.5787168 39.5794645 22.5491813 38.6945613 19.6072103 37.3852065 19.8474716 36.1406903 20.11292 34.8845613 20.29592 33.6294 20.4785265 32.3624323 20.5788813 31.0614 20.7197716M17.5351161 28.7402484C17.6758258 25.4151581 18.1202129 22.1463452 19.0240839 18.9566355 18.1535032 18.6549806 17.3133097 18.3915 16.4940194 18.0723323 15.6631161 17.7486387 14.8529226 17.3696516 14.0268581 17.0119161 11.7124065 19.3621871 9.17092258 25.8645903 9.46279355 28.7402484L17.5351161 28.7402484zM19.012529 41.4508184C18.0370452 38.0643345 17.616271 34.5576216 17.5260774 30.987941L9.43033548 30.987941C9.10904516 34.3974474 11.4004645 40.5840281 13.9820129 43.4110829 15.6672387 42.7544474 17.3278839 42.1072571 19.012529 41.4508184M23.4590516 10.4975097C21.0555677 11.1295484 16.7146645 13.8631355 15.5636323 15.4782581 16.9498258 16.0195839 18.3145355 16.5526452 19.7044065 17.0957419 20.6303419 14.6665645 21.7684065 12.4573806 23.4590516 10.4975097M22.8181161 45.7020265C23.7245032 47.4188813 24.8377935 48.9739877 26.3910194 50.1573877 27.1092774 50.7046168 27.8865677 51.1310265 28.7927613 51.3124523L28.7927613 42.3476168C26.3807613 42.4434458 24.0272129 42.6903974 21.6326323 43.2163748 22.039471 44.0747039 22.3975355 44.9052877 22.8181161 45.7020265"/>
    <path d="M29.2938581,7.18233677 C42.2087613,6.80807226 52.3965677,17.2296271 52.7863742,29.6342723 C53.1874065,42.407869 43.3189548,53.5157723 30.1596,53.6328529 C17.4006968,53.7463916 7.26418065,43.2921723 7.1736,30.4398658 C7.20514839,17.7174303 17.1473419,7.53436581 29.2938581,7.18233677 M29.4816,60.8025174 C46.6474065,61.0642271 60.0409548,46.9840497 59.9708903,30.4774497 C60.0908903,13.8464884 46.8622452,0.295436774 30.6409548,0.00499806452 C13.7246323,-0.298427742 0.357019355,13.2695465 0.00727741936,29.6836626 C-0.356206452,46.7400497 13.0938581,60.5520239 29.4816,60.8025174"/>
    <path d="M21.6358452 17.5942497C24.0497806 18.1023206 26.3998452 18.3839045 28.8046839 18.4451013L28.8046839 9.48951419C28.0225548 9.64968839 27.3472645 9.97534968 26.7207484 10.4104174 24.9697161 11.6270723 23.7588774 13.3130335 22.7723613 15.1802239 22.3651355 15.9507916 22.0266194 16.7587465 21.6358452 17.5942497M21.0759871 40.9621494C23.6362452 40.3785171 26.2152774 40.2031913 28.7941161 40.1307784L28.7941161 30.9829429 19.7112774 30.9829429C19.7809548 34.3806429 20.1036 37.7004203 21.0759871 40.9621494M19.7671742 28.72795L28.8080129 28.72795 28.8080129 20.6724081C26.1906581 20.6007823 23.6416258 20.1604016 21.0920129 19.5738177 20.3975613 21.4492726 19.5567871 27.2907113 19.7671742 28.72795"/>
  </g>
</svg>
