<svg xmlns="http://www.w3.org/2000/svg" width="60" height="61" viewBox="0 0 60 61">
  <g fill="#EF6942" fill-rule="evenodd">
    <path d="M17.0316968,19.7897926 C17.1929226,16.6083778 18.3269226,13.8159116 20.4530516,11.4631945 C22.4998258,9.19834887 25.0353097,7.79613344 28.0341484,7.36246463 C32.1021484,6.77404019 35.7118258,7.87419775 38.7551806,10.6839244 C41.3135032,13.045664 42.686729,16.0262299 42.9265355,19.5218633 C43.0397613,21.1729823 42.8663419,22.8156672 42.5965355,24.4446222 C41.8536968,28.9331238 40.3624065,33.1860595 38.6042129,37.3507315 C36.2214387,42.9947026 33.3561484,48.3809437 30.122729,53.5686897 C30.0888581,53.6228248 30.0511161,53.67441 29.9738903,53.7877797 C29.5266,53.0734325 29.0992452,52.4085129 28.6881484,51.7330016 C25.1442774,45.9097572 22.0730516,39.8485932 19.744471,33.4163296 C18.7993742,30.8058826 18.0156968,28.1475772 17.5091806,25.4112074 C17.1650516,23.5537476 16.9360839,21.681381 17.0316968,19.7897926 M29.4816968,60.8002299 C46.6475032,61.0610981 60.0412452,47.0258023 59.9709871,30.5726704 C60.0911806,13.9949887 46.8621484,0.487313505 30.6410516,0.198004823 C13.7245355,-0.104445338 0.357309677,13.4197058 0.00718064516,29.7810434 C-0.356109677,46.7829791 13.0939548,60.5503457 29.4816968,60.8002299" transform="translate(0 .003)"/>
    <path d="M30.0245806,26.4793743 C33.3214839,26.4805511 36.0185806,23.7169177 36.0178065,20.3377923 C36.0168387,16.9714161 33.3137419,14.2315158 29.9922581,14.2301428 C26.6562581,14.2287698 23.9444516,16.9741621 23.9429032,20.3544643 C23.9411613,23.7428084 26.6572258,26.4778051 30.0245806,26.4793743"/>
  </g>
</svg>
