<svg xmlns="http://www.w3.org/2000/svg" width="50" height="50" viewBox="0 0 50 50">
  <g fill="#49B7E7" fill-rule="evenodd">
    <path d="M24.9624549,3.6101083 C13.1886282,3.6101083 3.6101083,13.1888087 3.6101083,24.9626354 C3.6101083,36.7364621 13.1886282,46.3149819 24.9624549,46.3149819 C36.7362816,46.3149819 46.3149819,36.7364621 46.3149819,24.9626354 C46.3149819,13.1888087 36.7362816,3.6101083 24.9624549,3.6101083 M24.9624549,49.9250903 C11.1981949,49.9250903 0,38.7270758 0,24.9626354 C0,11.1981949 11.1981949,0 24.9624549,0 C38.7268953,0 49.9250903,11.1981949 49.9250903,24.9626354 C49.9250903,38.7270758 38.7268953,49.9250903 24.9624549,49.9250903"/>
    <path d="M24.9624549 39.1850181C16.5063177 39.1850181 9.62689531 32.3054152 9.62689531 23.849278 9.62689531 22.8525271 10.4350181 22.0442238 11.4319495 22.0442238 12.4288809 22.0442238 13.2370036 22.8525271 13.2370036 23.849278 13.2370036 30.3148014 18.4971119 35.5749097 24.9624549 35.5749097 31.4279783 35.5749097 36.6880866 30.3148014 36.6880866 23.849278 36.6880866 22.8525271 37.4963899 22.0442238 38.4931408 22.0442238 39.4898917 22.0442238 40.2981949 22.8525271 40.2981949 23.849278 40.2981949 32.3054152 33.4185921 39.1850181 24.9624549 39.1850181M20.6469856 15.63787C20.6469856 17.3454513 19.262509 18.7301083 17.5545668 18.7301083 15.846444 18.7301083 14.4619675 17.3454513 14.4619675 15.63787 14.4619675 13.9295668 15.846444 12.5450903 17.5545668 12.5450903 19.262509 12.5450903 20.6469856 13.9295668 20.6469856 15.63787M35.0873285 15.63787C35.0873285 17.3454513 33.702852 18.7301083 31.9949097 18.7301083 30.2869675 18.7301083 28.902491 17.3454513 28.902491 15.63787 28.902491 13.9295668 30.2869675 12.5450903 31.9949097 12.5450903 33.702852 12.5450903 35.0873285 13.9295668 35.0873285 15.63787"/>
  </g>
</svg>
