<svg xmlns="http://www.w3.org/2000/svg" width="60" height="46" viewBox="0 0 60 46">
  <path fill="#96A6B5" fill-rule="evenodd" d="M15.4562836,8.80422804 C11.5997018,8.76467664 8.44108364,11.8249664 8.41032,15.6304991 C8.38042909,19.3592935 11.4694473,22.4808449 15.2649382,22.5569383 C19.0916291,22.6336766 22.2845018,19.5755364 22.3584655,15.7631252 C22.4317745,11.9836019 19.3176655,8.84420935 15.4562836,8.80422804 L15.4562836,8.80422804 Z M24.7091564,29.8670692 C21.5405018,25.700415 15.49992,24.2230411 10.6043564,26.348929 C6.18617455,28.2673869 2.85170182,33.363929 3.60726545,37.172471 C9.14101091,37.172471 14.6950473,37.1789196 20.2488655,37.149686 C20.4766473,37.1483963 20.8335927,36.8545551 20.9088655,36.6262748 C21.7257382,34.145929 23.0066836,31.9230972 24.7091564,29.8670692 L24.7091564,29.8670692 Z M49.5611564,12.9220879 C49.5711927,7.59103178 45.2717018,3.32334953 39.9253745,3.35774206 C34.6263927,3.39170467 30.3360655,7.58415327 30.3129382,12.7505551 C30.2891564,18.0740879 34.5589745,22.3546673 39.9149018,22.3774523 C45.2376655,22.3995925 49.5513382,18.1714617 49.5611564,12.9220879 L49.5611564,12.9220879 Z M56.5632655,42.5753215 C56.2366473,36.220228 53.5189745,31.3468075 47.9385382,28.3587421 C41.9208655,25.1363776 35.8809382,25.5146953 30.2732291,29.398471 C25.7156291,32.5546299 23.5335927,37.0559664 23.3518473,42.5753215 L56.5632655,42.5753215 Z M20.0634109,40.5427234 L17.5355564,40.5427234 C13.0630473,40.5427234 8.59032,40.5504617 4.11759273,40.5401439 C1.13526545,40.5328355 -0.225316364,39.1064056 0.0303927273,36.1596112 C0.466101818,31.1337888 2.83272,27.2068075 7.10384727,24.4102654 C7.55657455,24.1138449 8.03526545,23.855686 8.62675636,23.506172 C5.69810182,20.7134991 4.40712,17.3752748 5.26850182,13.4106766 C5.80632,10.9350598 7.18392,8.94416262 9.24333818,7.43519065 C13.4136655,4.37962991 19.2310473,4.8783215 22.8576655,8.58218131 C26.9045018,12.7148729 26.6913382,17.9285645 22.3013018,23.4135271 C23.94552,24.6768075 25.5906109,25.9411626 27.2433382,27.2111065 C29.1269018,26.1516019 31.1285018,25.0258916 33.1586836,23.8838449 C29.1657382,21.2988168 26.8767927,17.5771159 26.8973018,12.7043402 C26.9127927,9.02648972 28.3898836,5.89010654 31.1494473,3.37923738 C36.5784655,-1.56146355 45.0437018,-1.02085607 49.9257382,4.58340561 C54.60072,9.94992897 54.2915564,19.0080598 46.7490109,23.9270505 C48.2422473,24.7462374 49.8183927,25.4482748 51.2138836,26.4056766 C56.81352,30.2471065 59.6616655,35.6121252 59.9507564,42.2993215 C60.0482836,44.5606299 58.5284291,45.9823308 56.0985382,45.9844804 C46.71672,45.9920037 37.33512,45.9874897 27.9533018,45.9874897 C26.6077745,45.9874897 25.2624655,45.9917888 23.9169382,45.9866299 C21.1746109,45.9765271 19.7795564,44.4748636 19.9833382,41.7608636 C20.00952,41.4098449 20.0295927,41.0583963 20.0634109,40.5427234 L20.0634109,40.5427234 Z"/>
</svg>
