<svg xmlns="http://www.w3.org/2000/svg" width="48" height="48" viewBox="0 0 48 48" xmlns:xlink="http://www.w3.org/1999/xlink">
  <defs>
    <polygon id="a" points="47.984 .194 0 .194 0 47.984 47.984 47.984"/>
  </defs>
  <g fill="none" fill-rule="evenodd">
    <mask id="b" fill="white">
      <use xlink:href="#a"/>
    </mask>
    <path fill="#96A6B5" d="M4.04983968,4.06443871 C3.95986397,4.06443871 3.88660081,4.13740645 3.88660081,4.22701935 L3.88660081,43.9510839 C3.88660081,44.0405032 3.95986397,44.113471 4.04983968,44.113471 L43.934536,44.113471 C44.0245117,44.113471 44.0977749,44.0405032 44.0977749,43.9510839 L44.0977749,4.22701935 C44.0977749,4.13740645 44.0245117,4.06443871 43.934536,4.06443871 L4.04983968,4.06443871 Z M43.934536,47.9844387 L4.04983968,47.9844387 C1.81677085,47.9844387 -3.88663966e-05,46.1751484 -3.88663966e-05,43.9510839 L-3.88663966e-05,4.22701935 C-3.88663966e-05,2.00295484 1.81677085,0.193470968 4.04983968,0.193470968 L43.934536,0.193470968 C46.1676049,0.193470968 47.9844146,2.00295484 47.9844146,4.22701935 L47.9844146,43.9510839 C47.9844146,46.1751484 46.1676049,47.9844387 43.934536,47.9844387 L43.934536,47.9844387 Z" mask="url(#b)"/>
    <path fill="#96A6B5" d="M39.4740729 14.6950452L15.3769069 14.6950452C14.3038057 14.6950452 13.433587 13.828529 13.433587 12.7595613 13.433587 11.6905935 14.3038057 10.8240774 15.3769069 10.8240774L39.4740729 10.8240774C40.5471741 10.8240774 41.4173927 11.6905935 41.4173927 12.7595613 41.4173927 13.828529 40.5471741 14.6950452 39.4740729 14.6950452M12.0595822 12.7595613C12.0595822 13.8922065 11.1378656 14.8104 10.0004405 14.8104 8.86340405 14.8104 7.94110445 13.8922065 7.94110445 12.7595613 7.94110445 11.6269161 8.86340405 10.7087226 10.0004405 10.7087226 11.1378656 10.7087226 12.0595822 11.6269161 12.0595822 12.7595613M12.0595822 24.2307097C12.0595822 25.3633548 11.1378656 26.2815484 10.0004405 26.2815484 8.86340405 26.2815484 7.94110445 25.3633548 7.94110445 24.2307097 7.94110445 23.0980645 8.86340405 22.179871 10.0004405 22.179871 11.1378656 22.179871 12.0595822 23.0980645 12.0595822 24.2307097M12.0595822 35.8438839C12.0595822 36.976529 11.1378656 37.8947226 10.0004405 37.8947226 8.86340405 37.8947226 7.94110445 36.976529 7.94110445 35.8438839 7.94110445 34.7112387 8.86340405 33.7930452 10.0004405 33.7930452 11.1378656 33.7930452 12.0595822 34.7112387 12.0595822 35.8438839M39.4740729 26.1662903L15.3769069 26.1662903C14.3038057 26.1662903 13.433587 25.2997742 13.433587 24.2308065 13.433587 23.1618387 14.3038057 22.2953226 15.3769069 22.2953226L39.4740729 22.2953226C40.5471741 22.2953226 41.4173927 23.1618387 41.4173927 24.2308065 41.4173927 25.2997742 40.5471741 26.1662903 39.4740729 26.1662903M39.4740729 37.7791935L15.3769069 37.7791935C14.3038057 37.7791935 13.433587 36.9124839 13.433587 35.8437097 13.433587 34.7749355 14.3038057 33.9082258 15.3769069 33.9082258L39.4740729 33.9082258C40.5471741 33.9082258 41.4173927 34.7749355 41.4173927 35.8437097 41.4173927 36.9124839 40.5471741 37.7791935 39.4740729 37.7791935" mask="url(#b)"/>
  </g>
</svg>
