<svg xmlns="http://www.w3.org/2000/svg" width="46" height="52" viewBox="0 0 46 52" xmlns:xlink="http://www.w3.org/1999/xlink">
  <defs>
    <polygon id="a" points="0 51.472 45.985 51.472 45.985 .187 0 .187"/>
  </defs>
  <g fill="none" fill-rule="evenodd">
    <mask id="b" fill="white">
      <use xlink:href="#a"/>
    </mask>
    <path fill="#49B7E7" d="M42.1040794,47.7335806 L3.88124534,47.7335806 C3.79483239,47.7335806 3.72462186,47.6631154 3.72462186,47.5765758 L3.72462186,20.6745457 L42.2605166,20.6745457 L42.2605166,47.5765758 C42.2605166,47.6631154 42.1903061,47.7335806 42.1040794,47.7335806 M3.88124534,9.05805728 L11.0362008,9.05805728 L11.0362008,11.9166667 C11.0362008,12.9487865 11.8699741,13.7857718 12.898549,13.7857718 C13.9271239,13.7857718 14.7608972,12.9487865 14.7608972,11.9166667 L14.7608972,9.05805728 L31.2244275,9.05805728 L31.2244275,11.9166667 C31.2244275,12.9487865 32.0582008,13.7857718 33.0867757,13.7857718 C34.1153506,13.7857718 34.9491239,12.9487865 34.9491239,11.9166667 L34.9491239,9.05805728 L42.1040794,9.05805728 C42.1903061,9.05805728 42.2605166,9.12852254 42.2605166,9.2148752 L42.2605166,16.9363354 L3.72462186,16.9363354 L3.72462186,9.2148752 C3.72462186,9.12852254 3.79483239,9.05805728 3.88124534,9.05805728 M42.1040794,5.31984702 L34.9491239,5.31984702 L34.9491239,2.05601564 C34.9491239,1.02370888 34.1153506,0.186910513 33.0867757,0.186910513 C32.0582008,0.186910513 31.2244275,1.02370888 31.2244275,2.05601564 L31.2244275,5.31984702 L14.7608972,5.31984702 L14.7608972,2.05601564 C14.7608972,1.02370888 13.9271239,0.186910513 12.898549,0.186910513 C11.8699741,0.186910513 11.0362008,1.02370888 11.0362008,2.05601564 L11.0362008,5.31984702 L3.88124534,5.31984702 C1.74122105,5.31984702 -7.44939273e-05,7.0670865 -7.44939273e-05,9.2148752 L-7.44939273e-05,47.5765758 C-7.44939273e-05,49.7243645 1.74122105,51.4717909 3.88124534,51.4717909 L42.1040794,51.4717909 C44.2441036,51.4717909 45.985213,49.7243645 45.985213,47.5765758 L45.985213,9.2148752 C45.985213,7.0670865 44.2441036,5.31984702 42.1040794,5.31984702" mask="url(#b)"/>
    <path fill="#49B7E7" d="M26.8365273,35.6450549 C26.447354,36.0258632 26.2696915,36.5742072 26.3616599,37.1119456 L26.9755532,40.70427 L23.7609518,39.0081984 C23.520546,38.8812623 23.256529,38.8177943 22.992677,38.8177943 C22.7288251,38.8177943 22.4648081,38.8812623 22.2242372,39.0081984 L19.0096358,40.70427 L19.623529,37.1119456 C19.7154974,36.5742072 19.5378349,36.0258632 19.1486616,35.6450549 L16.5479535,33.1006989 L20.1421516,32.576549 C20.6799274,32.4981668 21.1447229,32.1591182 21.3852938,31.6700994 L22.992677,28.4014123 L24.6000603,31.6700994 C24.8404661,32.1591182 25.3054267,32.4981668 25.8432024,32.576549 L29.4372355,33.1006989 L26.8365273,35.6450549 Z M33.2229657,30.3037965 L27.1771572,29.4220381 L24.4732529,23.9238495 C24.195036,23.3581056 23.6211003,23 22.992677,23 C22.3642537,23 21.7901529,23.3581056 21.5119361,23.9238495 L18.8081969,29.4220381 L12.7623883,30.3037965 C12.1404045,30.3944414 11.6235982,30.8317578 11.4294243,31.4316385 C11.2352504,32.0315192 11.3972271,32.6900623 11.8473274,33.1303615 L16.2221838,37.4102288 L15.1893967,43.4534472 C15.0830634,44.075202 15.337669,44.7034197 15.8462196,45.0741194 C16.3546051,45.4451506 17.0289301,45.4937045 17.5850335,45.2003927 L22.992677,42.3471478 L28.4001554,45.2003927 C28.641717,45.3278259 28.9055689,45.3907968 29.1684302,45.3907968 C29.5107112,45.3907968 29.851341,45.283912 30.1389693,45.0741194 C30.64752,44.7034197 30.9021255,44.075202 30.7957922,43.4534472 L29.7631702,37.4102288 L34.1380267,33.1303615 C34.588127,32.6900623 34.7501037,32.0315192 34.5557647,31.4316385 C34.3615908,30.8317578 33.8449496,30.3944414 33.2229657,30.3037965 L33.2229657,30.3037965 Z" mask="url(#b)"/>
  </g>
</svg>
